<?xml version="1.0" standalone="no"?><!DOCTYPE svg PUBLIC "-//W3C//DTD SVG 1.1//EN" "http://www.w3.org/Graphics/SVG/1.1/DTD/svg11.dtd"><svg t="1622976472377" class="icon" viewBox="0 0 3141 1024" version="1.1" xmlns="http://www.w3.org/2000/svg" p-id="1197" xmlns:xlink="http://www.w3.org/1999/xlink" width="184.04296875" height="60"><defs><style type="text/css"></style></defs><path d="M1259.690667 735.300267l0 195.908267-84.5824 0L1175.108267 759.261867c0-19.8656-4.130133-34.167467-12.373333-42.8544-8.260267-8.686933-19.438933-13.038933-33.518933-13.038933-20.155733 0-34.747733 5.12-43.793067 15.428267-9.0624 10.308267-13.585067 24.4736-13.585067 42.5984l0 169.813333-84.565333 0 0-170.376533c0-18.090667-2.030933-30.702933-6.058667-37.802667-7.236267-13.124267-22.152533-19.677867-44.6976-19.677867-18.5344 0-31.914667 4.9664-40.157867 14.882133-8.260267 9.949867-12.3904 23.432533-12.3904 40.482133l0 172.475733L799.402667 931.191467 799.402667 647.970133l80.9472 0 0 41.557333c8.8576-13.841067 18.517333-24.302933 28.996267-31.402667 16.930133-11.741867 38.058667-17.5616 63.419733-17.5616 22.152533 0 39.662933 3.5328 52.565333 10.632533 12.885333 7.099733 25.156267 18.6368 36.846933 34.6112 10.052267-12.8 19.114667-22.016 27.170133-27.682133 16.520533-11.741867 36.0448-17.5616 58.606933-17.5616 32.6144 0 59.392 8.226133 80.3328 24.7296C1249.211733 681.7792 1259.690667 705.1264 1259.690667 735.300267z" p-id="1198"></path><path d="M1597.354667 722.5344l0 153.309867c0 15.616 1.604267 26.453333 4.829867 32.477867 3.2256 6.024533 7.867733 9.915733 13.892267 11.707733l0 11.178667-91.221333 0c-4.027733-10.632533-6.638933-21.8112-7.850667-33.553067-13.687467 12.765867-26.180267 21.845333-37.461333 27.170133C1461.026133 934.058667 1438.890667 938.666667 1413.12 938.666667c-26.9824 0-49.322667-6.382933-67.037867-19.1488-20.5312-14.916267-30.8224-36.0448-30.8224-63.368533 0-26.606933 8.448-47.4624 25.378133-62.5664 16.930133-15.069867 39.662933-24.3712 68.266667-27.938133l76.100267-10.120533c9.2672-1.0752 15.906133-2.816 19.933867-5.307733 6.434133-3.8912 9.6768-9.591467 9.6768-17.0496 0-13.841067-6.434133-23.2448-19.319467-28.194133-8.055467-3.208533-20.155733-4.795733-36.2496-4.795733-18.926933 0-32.631467 4.437333-41.079467 13.329067-5.649067 5.666133-9.284267 14.353067-10.871467 26.0608l-81.544533 0c4.437333-39.031467 21.333333-66.3552 50.7392-81.9712 21.76-11.349333 52.753067-17.015467 93.0304-17.015467 32.221867 0 59.204267 4.7616 80.9472 14.353067C1581.653333 668.757333 1597.354667 691.285333 1597.354667 722.5344zM1514.5984 829.525333l0-36.1984c-4.027733 2.850133-10.478933 5.614933-19.319467 8.260267-8.874667 2.6624-22.272 5.2224-40.174933 7.714133-17.92 2.491733-30.702933 6.024533-38.3488 10.632533-11.281067 6.775467-16.913067 17.237333-16.913067 31.402667 0 11.741867 4.437333 20.616533 13.294933 26.641067 7.253333 4.9664 15.906133 7.458133 25.9584 7.458133 20.138667 0 37.768533-5.154133 52.855467-15.4624C1507.037867 859.6992 1514.5984 846.216533 1514.5984 829.525333z" p-id="1199"></path><path d="M1672.260267 931.208533 1672.260267 647.970133l80.9472 0 0 48.981333c14.8992-23.04 28.996267-38.212267 42.274133-45.5168 13.294933-7.253333 28.996267-10.888533 47.121067-10.888533l16.315733 0 0 76.663467c-3.618133-0.3584-7.253333-0.6144-10.871467-0.802133-3.618133-0.1536-8.055467-0.256-13.294933-0.256-29.7984 0-50.944 7.253333-63.419733 21.8112-9.6768 11.025067-14.506667 26.282667-14.506667 45.806933l0 147.456L1672.260267 931.2256z" p-id="1200"></path><path d="M2172.398933 734.225067l-82.756267 0c-2.423467-12.066133-6.434133-20.5824-12.0832-25.5488-8.8576-7.816533-23.7568-11.741867-44.6976-11.741867-20.5312 0-34.833067 3.054933-42.888533 9.079467-6.0416 4.608-9.0624 10.820267-9.0624 18.6368 0 10.990933 17.3056 19.8656 51.950933 26.606933 49.527467 9.557333 81.749333 17.373867 96.648533 23.3984 35.037867 14.557867 52.565333 36.7616 52.565333 66.542933 0 36.1984-17.117867 62.651733-51.336533 79.342933-24.968533 12.066133-54.766933 18.090667-89.412267 18.090667-43.093333 0-77.909333-6.741333-104.482133-20.224-33.4336-17.0496-50.141867-42.9568-50.141867-77.7216l86.971733 0c0 13.124267 5.341867 23.330133 16.008533 30.600533 10.666667 7.287467 28.706133 10.922667 54.0672 10.922667 18.926933 0 33.2288-3.5328 42.888533-10.632533 7.253333-5.341867 10.888533-11.537067 10.888533-18.6368 0-11.741867-17.117867-20.9408-51.3536-27.682133-50.7392-9.591467-82.756267-17.220267-96.034133-22.920533-34.645333-14.165333-51.950933-36.522667-51.950933-67.072 0-24.832 9.0624-45.7728 27.1872-62.8224 22.954667-21.2992 57.173333-31.931733 102.673067-31.931733 40.260267 0 72.0896 5.4784 95.4368 16.503467C2156.100267 672.682667 2172.398933 698.385067 2172.398933 734.225067z" p-id="1201"></path><path d="M2553.5488 789.589333c0 48.622933-16.520533 86.254933-49.527467 112.861867-29.7984 24.149333-68.061867 36.1984-114.773333 36.1984-46.728533 0-84.957867-12.066133-114.773333-36.1984-33.024-26.606933-49.527467-64.238933-49.527467-112.861867s16.503467-86.2208 49.527467-112.861867c29.7984-24.1152 68.0448-36.181333 114.773333-36.181333 46.711467 0 84.957867 12.066133 114.773333 36.181333C2537.045333 703.368533 2553.5488 740.9664 2553.5488 789.589333zM2466.577067 789.589333c0-23.3984-4.625067-42.24-13.892267-56.439467-12.9024-19.8656-34.030933-29.781333-63.419733-29.781333-28.996267 0-49.937067 9.762133-62.8224 29.269333-9.6768 14.916267-14.506667 33.911467-14.506667 56.951467 0 23.432533 4.625067 42.24 13.892267 56.439467 12.885333 19.899733 34.030933 29.815467 63.419733 29.815467 28.996267 0 49.937067-9.762133 62.8224-29.269333C2461.7472 831.675733 2466.577067 812.680533 2466.577067 789.589333z" p-id="1202"></path><path d="M2710.596267 701.2352l0 229.973333-84.565333 0L2626.030933 701.2352l-46.523733 0 0-53.248 46.523733 0 0-22.8864c0-28.040533 8.1408-48.520533 24.456533-61.4912 16.315733-12.936533 39.560533-19.421867 69.768533-19.421867l43.502933 0 0 59.613867-23.569067 0c-13.294933 0-21.538133 2.133333-24.763733 6.3488-3.2256 4.2496-4.829867 13.0048-4.829867 26.248533l0 11.5712 54.971733 0 0 53.248L2710.596267 701.218133z" p-id="1203"></path><path d="M2908.740267 571.323733l0 76.663467 52.548267 0 0 53.248-52.548267 0 0 153.838933c0 9.233067 1.809067 15.36 5.4272 18.3808 3.6352 3.0208 13.482667 4.539733 29.5936 4.539733l17.5104 0 0 55.364267-39.867733 1.0752-10.871467 0c-34.235733 0-57.8048-5.512533-70.673067-16.5376-10.478933-8.840533-15.701333-23.7568-15.701333-44.6976L2824.157867 701.2352l-43.502933 0 0-53.248 43.502933 0 0-76.663467L2908.740267 571.323733z" p-id="1204"></path><path d="M1458.944 395.383467C1401.668267 201.949867 1261.704533 85.333333 1080.661333 85.333333 805.5808 85.333333 272.2304 795.153067 178.978133 925.252267l114.005333 0C545.109333 612.5056 879.530667 233.352533 1067.0592 233.352533c78.1312 0 143.991467 29.7472 191.8464 162.030933L1458.944 395.383467z" p-id="1205"></path><path d="M1458.944 395.383467C1401.668267 201.949867 1261.704533 85.333333 1080.661333 85.333333 805.5808 85.333333 272.2304 795.153067 178.978133 925.252267l114.005333 0C545.109333 612.5056 879.530667 233.352533 1067.0592 233.352533c78.1312 0 143.991467 29.7472 191.8464 162.030933L1458.944 395.383467z" p-id="1206"></path><path d="M1458.944 395.383467C1401.668267 201.949867 1261.704533 85.333333 1080.661333 85.333333 805.5808 85.333333 272.2304 795.153067 178.978133 925.252267l114.005333 0C545.109333 612.5056 879.530667 233.352533 1067.0592 233.352533c78.1312 0 143.991467 29.7472 191.8464 162.030933L1458.944 395.383467z" p-id="1207"></path><path d="M1458.944 395.383467C1401.668267 201.949867 1261.704533 85.333333 1080.661333 85.333333 805.5808 85.333333 272.2304 795.153067 178.978133 925.252267l114.005333 0C545.109333 612.5056 879.530667 233.352533 1067.0592 233.352533c78.1312 0 143.991467 29.7472 191.8464 162.030933L1458.944 395.383467z" p-id="1208"></path><path d="M1466.112 421.649067 1267.746133 421.649067c4.5056 14.3872 8.823467 29.866667 12.970667 46.421333l195.106133 0C1473.058133 452.1984 1469.8496 436.6848 1466.112 421.649067z" p-id="1209"></path><path d="M1466.112 421.649067 1267.746133 421.649067c4.5056 14.3872 8.823467 29.866667 12.970667 46.421333l195.106133 0C1473.058133 452.1984 1469.8496 436.6848 1466.112 421.649067z" p-id="1210"></path><path d="M1466.112 421.649067 1267.746133 421.649067c4.5056 14.3872 8.823467 29.866667 12.970667 46.421333l195.106133 0C1473.058133 452.1984 1469.8496 436.6848 1466.112 421.649067z" p-id="1211"></path><path d="M1466.112 421.649067 1267.746133 421.649067c4.5056 14.3872 8.823467 29.866667 12.970667 46.421333l195.106133 0C1473.058133 452.1984 1469.8496 436.6848 1466.112 421.649067z" p-id="1212"></path><path d="M1479.560533 491.7248 1286.331733 491.7248c3.191467 14.1312 6.2464 29.013333 9.198933 44.663467l188.945067 0C1483.246933 521.198933 1481.591467 506.299733 1479.560533 491.7248z" p-id="1213"></path><path d="M1479.560533 491.7248 1286.331733 491.7248c3.191467 14.1312 6.2464 29.013333 9.198933 44.663467l188.945067 0C1483.246933 521.198933 1481.591467 506.299733 1479.560533 491.7248z" p-id="1214"></path><path d="M1479.560533 491.7248 1286.331733 491.7248c3.191467 14.1312 6.2464 29.013333 9.198933 44.663467l188.945067 0C1483.246933 521.198933 1481.591467 506.299733 1479.560533 491.7248z" p-id="1215"></path><path d="M1479.560533 491.7248 1286.331733 491.7248c3.191467 14.1312 6.2464 29.013333 9.198933 44.663467l188.945067 0C1483.246933 521.198933 1481.591467 506.299733 1479.560533 491.7248z" p-id="1216"></path><path d="M1303.534933 582.8096l183.261867-3.9424c-0.187733-6.331733-0.443733-12.5952-0.768-18.824533L1299.780267 560.042667C1301.060267 567.466667 1302.306133 575.044267 1303.534933 582.8096z" p-id="1217"></path><path d="M1303.534933 582.8096l183.261867-3.9424c-0.187733-6.331733-0.443733-12.5952-0.768-18.824533L1299.780267 560.042667C1301.060267 567.466667 1302.306133 575.044267 1303.534933 582.8096z" p-id="1218"></path><path d="M1303.534933 582.8096l183.261867-3.9424c-0.187733-6.331733-0.443733-12.5952-0.768-18.824533L1299.780267 560.042667C1301.060267 567.466667 1302.306133 575.044267 1303.534933 582.8096z" p-id="1219"></path><path d="M1303.534933 582.8096l183.261867-3.9424c-0.187733-6.331733-0.443733-12.5952-0.768-18.824533L1299.780267 560.042667C1301.060267 567.466667 1302.306133 575.044267 1303.534933 582.8096z" p-id="1220"></path><path d="M1039.035733 444.859733m-98.0992 0a5.748 5.748 0 1 0 196.1984 0 5.748 5.748 0 1 0-196.1984 0Z" p-id="1221"></path></svg>